<?xml version="1.0" encoding="UTF-8"?>
<svg width="324px" height="44px" viewBox="0 0 324 44" version="1.1" xmlns="http://www.w3.org/2000/svg" xmlns:xlink="http://www.w3.org/1999/xlink">
    <!-- Generator: Sketch 47.1 (45422) - http://www.bohemiancoding.com/sketch -->
    <title>Group</title>
    <desc>Created with Sketch.</desc>
    <defs></defs>
    <g id="Page-1" stroke="none" stroke-width="1" fill="none" fill-rule="evenodd">
        <g id="Artboard-7" transform="translate(-88.000000, -228.000000)">
            <g id="Group" transform="translate(88.000000, 228.000000)">
                <path d="M4.28,5.44 C6.880013,2.3599846 11.4999668,0.82 18.14,0.82 C24.7800332,0.82 29.399987,2.3499847 32,5.41 C34.600013,8.4700153 35.9,14.099959 35.9,22.3 C35.9,30.500041 34.600013,36.1299847 32,39.19 C29.399987,42.2500153 24.7800332,43.78 18.14,43.78 C11.4999668,43.78 6.8900129,42.2500153 4.31,39.19 C1.7299871,36.1299847 0.44,30.500041 0.44,22.3 C0.44,14.099959 1.7199872,8.4800152 4.28,5.44 Z M24.5,11.14 C23.3799944,9.1799902 21.2600156,8.2 18.14,8.2 C15.0199844,8.2 12.8900057,9.1799902 11.75,11.14 C10.6099943,13.1000098 10.04,16.8199726 10.04,22.3 C10.04,27.7800274 10.6099943,31.4999902 11.75,33.46 C12.8900057,35.4200098 15.0199844,36.4 18.14,36.4 C21.2600156,36.4 23.3899943,35.4200098 24.53,33.46 C25.6700057,31.4999902 26.24,27.7800274 26.24,22.3 C26.24,16.8199726 25.6600058,13.1000098 24.5,11.14 Z M42.86,43 L42.86,1.6 C46.5800186,1.2399982 51.8199662,1.06 58.58,1.06 C64.380029,1.06 68.3499893,1.9999906 70.49,3.88 C72.6300107,5.7600094 73.7,9.3199738 73.7,14.56 C73.7,19.8000262 72.6900101,23.3699905 70.67,25.27 C68.6499899,27.1700095 65.0200262,28.12 59.78,28.12 C57.1399868,28.12 54.5400128,27.9600016 51.98,27.64 L51.98,43 L42.86,43 Z M51.98,21.1 L58.4,21.1 C60.7600118,21.0599998 62.3699957,20.6000044 63.23,19.72 C64.0900043,18.8399956 64.52,17.1200128 64.52,14.56 C64.52,11.9999872 64.0900043,10.2800044 63.23,9.4 C62.3699957,8.5199956 60.7600118,8.08 58.4,8.08 L51.98,8.14 L51.98,21.1 Z M107.24,35.86 L107.66,42.58 C103.899981,42.980002 97.5000452,43.18 88.46,43.18 C85.6999862,43.18 83.5000082,42.4300075 81.86,40.93 C80.2199918,39.4299925 79.3800002,37.4000128 79.34,34.84 L79.34,9.76 C79.3800002,7.1999872 80.2199918,5.1700075 81.86,3.67 C83.5000082,2.1699925 85.6999862,1.42 88.46,1.42 C97.5000452,1.42 103.899981,1.619998 107.66,2.02 L107.24,8.8 L91.34,8.8 C90.339995,8.8 89.6200022,9.0399976 89.18,9.52 C88.7399978,10.0000024 88.52,10.7799946 88.52,11.86 L88.52,18.16 L105.02,18.16 L105.02,24.76 L88.52,24.76 L88.52,32.74 C88.52,33.8600056 88.7399978,34.6599976 89.18,35.14 C89.6200022,35.6200024 90.339995,35.86 91.34,35.86 L107.24,35.86 Z M149.18,1.6 L149.18,39.7 C149.18,41.900011 148.100011,43 145.94,43 L140.24,43 C139.319995,43 138.600003,42.7900021 138.08,42.37 C137.559997,41.9499979 137.060002,41.2600048 136.58,40.3 L125.72,18.22 C124.359993,15.2999854 123.520002,13.1600068 123.2,11.8 L122.54,11.8 C122.820001,13.80001 122.96,15.999988 122.96,18.4 L122.96,43 L114.26,43 L114.26,4.9 C114.26,2.699989 115.359989,1.6 117.56,1.6 L123.14,1.6 C124.060005,1.6 124.779997,1.8099979 125.3,2.23 C125.820003,2.6500021 126.319998,3.3399952 126.8,4.3 L137.3,25.72 C138.300005,27.72001 139.299995,29.9399878 140.3,32.38 L140.9,32.38 C140.659999,29.2599844 140.54,26.9400076 140.54,25.42 L140.54,1.6 L149.18,1.6 Z" id="OPEN" fill="#FFFFFF"></path>
                <path d="M177.26,21.4 L177.26,21.64 C180.340015,21.9200014 182.539993,22.9699909 183.86,24.79 C185.180007,26.6100091 185.84,29.2399828 185.84,32.68 C185.84,36.8400208 184.780011,39.6799924 182.66,41.2 C180.539989,42.7200076 176.920026,43.48 171.8,43.48 C164.119962,43.48 158.30002,43.3200016 154.34,43 L154.34,1.6 C157.900018,1.2799984 163.079966,1.12 169.88,1.12 C175.400028,1.12 179.219989,1.8699925 181.34,3.37 C183.460011,4.8700075 184.52,7.719979 184.52,11.92 C184.52,14.920015 183.950006,17.1899923 182.81,18.73 C181.669994,20.2700077 179.820013,21.1599988 177.26,21.4 Z M163.28,18.52 L169.94,18.52 C172.180011,18.52 173.709996,18.1600036 174.53,17.44 C175.350004,16.7199964 175.76,15.3000106 175.76,13.18 C175.76,11.0999896 175.320004,9.7200034 174.44,9.04 C173.559996,8.3599966 171.900012,8.02 169.46,8.02 L163.28,7.96 L163.28,18.52 Z M163.28,36.58 L170.24,36.58 C172.760013,36.58 174.459996,36.2100037 175.34,35.47 C176.220004,34.7299963 176.66,33.2200114 176.66,30.94 C176.66,28.4599876 176.200005,26.7900043 175.28,25.93 C174.359995,25.0699957 172.600013,24.6200002 170,24.58 L163.28,24.58 L163.28,36.58 Z M267.52,24.76 L263.98,24.76 C264.260001,26.360008 264.4,27.6799948 264.4,28.72 L264.4,43 L255.28,43 L255.28,1.6 L264.4,1.6 L264.4,13.3 C264.4,15.0600088 264.260001,16.6999924 263.98,18.22 L267.52,18.22 L278.02,1.6 L287.92,1.6 L277.24,18.1 C276.559997,19.300006 275.560007,20.399995 274.24,21.4 L274.24,21.64 C275.680007,22.640005 276.839996,23.8599928 277.72,25.3 L288.64,43 L278.44,43 L267.52,24.76 Z M310.44,27.34 L302.1,24.4 C299.019985,23.2799944 296.820007,21.7600096 295.5,19.84 C294.179993,17.9199904 293.52,15.4000156 293.52,12.28 C293.52,7.7199772 294.629989,4.6700077 296.85,3.13 C299.070011,1.5899923 302.979972,0.82 308.58,0.82 C313.860026,0.82 318.399981,1.3599946 322.2,2.44 L321.6,8.68 C318.119983,8.5599994 313.800026,8.5 308.64,8.5 C306.239988,8.5 304.640004,8.7099979 303.84,9.13 C303.039996,9.5500021 302.64,10.5999916 302.64,12.28 C302.64,13.6400068 302.939997,14.619997 303.54,15.22 C304.140003,15.820003 305.279992,16.3999972 306.96,16.96 L314.82,19.66 C318.020016,20.7800056 320.279993,22.3099903 321.6,24.25 C322.920007,26.1900097 323.58,28.7199844 323.58,31.84 C323.58,36.4800232 322.460011,39.6299917 320.22,41.29 C317.979989,42.9500083 313.980029,43.78 308.22,43.78 C303.539977,43.78 298.800024,43.2600052 294,42.22 L294.54,35.62 C303.060043,35.820001 307.619997,35.92 308.22,35.92 C310.660012,35.92 312.289996,35.6600026 313.11,35.14 C313.930004,34.6199974 314.34,33.5400082 314.34,31.9 C314.34,30.499993 314.060003,29.5100029 313.5,28.93 C312.939997,28.3499971 311.920007,27.8200024 310.44,27.34 Z" id="BUUKS" fill="#5CD3B5"></path>
                <path d="M224.38,1.6 L224.38,26.5 C224.38,32.8200316 223.170012,37.279987 220.75,39.88 C218.329988,42.480013 214.16003,43.78 208.24,43.78 C201.999969,43.78 197.610013,42.480013 195.07,39.88 C192.529987,37.279987 191.26,32.8200316 191.26,26.5 L191.26,1.6 L200.38,1.6 L200.38,26.5 C200.38,30.300019 200.909995,32.899993 201.97,34.3 C203.030005,35.700007 204.979986,36.4 207.82,36.4 C210.620014,36.4 212.549995,35.700007 213.61,34.3 C214.670005,32.899993 215.2,30.300019 215.2,26.5 L215.2,1.6 L224.38,1.6 Z" id="Path" fill="#5CD3B5"></path>
                <path d="M248.12,1 L248.12,25.9 C248.12,32.2200316 246.910012,36.679987 244.49,39.28 C242.069988,41.880013 237.90003,43.18 231.98,43.18 C225.739969,43.18 221.350013,41.880013 218.81,39.28 C216.269987,36.679987 215,32.2200316 215,25.9 L215,1 L224.12,1 L224.12,25.9 C224.12,29.700019 224.649995,32.299993 225.71,33.7 C226.770005,35.100007 228.719986,35.8 231.56,35.8 C234.360014,35.8 236.289995,35.100007 237.35,33.7 C238.410005,32.299993 238.94,29.700019 238.94,25.9 L238.94,1 L248.12,1 Z" id="Path" fill="#5CD3B5"></path>
            </g>
        </g>
    </g>
</svg>